<mxfile host="app.diagrams.net" modified="2022-11-18T21:54:46.489Z" agent="5.0 (Windows NT 10.0; Win64; x64) AppleWebKit/537.36 (KHTML, like Gecko) Chrome/107.0.0.0 Safari/537.36" etag="GDBEXCtpqi98M0z59i0C" version="20.5.3" type="github">
  <diagram name="Page-1" id="c7488fd3-1785-93aa-aadb-54a6760d102a">
    <mxGraphModel dx="2282" dy="732" grid="1" gridSize="10" guides="1" tooltips="1" connect="1" arrows="1" fold="1" page="1" pageScale="1" pageWidth="1100" pageHeight="850" background="none" math="0" shadow="0">
      <root>
        <mxCell id="0" />
        <mxCell id="1" parent="0" />
        <mxCell id="xKhvlTLMgPMaPwzDGQI1-2" value="" style="rounded=0;whiteSpace=wrap;html=1;" vertex="1" parent="1">
          <mxGeometry x="-10" y="35" width="880" height="460" as="geometry" />
        </mxCell>
        <mxCell id="xKhvlTLMgPMaPwzDGQI1-3" value="&lt;p style=&quot;line-height: 180%; font-size: 18px;&quot;&gt;Client&lt;/p&gt;" style="rounded=0;whiteSpace=wrap;html=1;align=center;" vertex="1" parent="1">
          <mxGeometry x="750" y="215" width="120" height="90" as="geometry" />
        </mxCell>
        <mxCell id="xKhvlTLMgPMaPwzDGQI1-8" value="Host in S3" style="whiteSpace=wrap;html=1;aspect=fixed;fontSize=17;" vertex="1" parent="1">
          <mxGeometry x="470" y="215" width="90" height="90" as="geometry" />
        </mxCell>
        <mxCell id="xKhvlTLMgPMaPwzDGQI1-13" value="udagram-api&lt;br&gt;on&amp;nbsp;&lt;br&gt;elastic beanstalk" style="whiteSpace=wrap;html=1;aspect=fixed;fontSize=17;" vertex="1" parent="1">
          <mxGeometry x="170" y="210" width="100" height="100" as="geometry" />
        </mxCell>
        <mxCell id="xKhvlTLMgPMaPwzDGQI1-17" value="Amazon&amp;nbsp;&lt;br&gt;RDS&lt;br&gt;hosting&lt;br&gt;postgres" style="whiteSpace=wrap;html=1;aspect=fixed;fontSize=16;" vertex="1" parent="1">
          <mxGeometry x="155" y="365" width="130" height="130" as="geometry" />
        </mxCell>
        <mxCell id="xKhvlTLMgPMaPwzDGQI1-19" value="" style="endArrow=classic;html=1;rounded=0;fontSize=16;exitX=0;exitY=0.5;exitDx=0;exitDy=0;entryX=1;entryY=0.5;entryDx=0;entryDy=0;" edge="1" parent="1" source="xKhvlTLMgPMaPwzDGQI1-3" target="xKhvlTLMgPMaPwzDGQI1-8">
          <mxGeometry relative="1" as="geometry">
            <mxPoint x="420" y="290" as="sourcePoint" />
            <mxPoint x="520" y="290" as="targetPoint" />
          </mxGeometry>
        </mxCell>
        <mxCell id="xKhvlTLMgPMaPwzDGQI1-20" value="Go on site" style="edgeLabel;resizable=0;html=1;align=center;verticalAlign=middle;fontSize=16;" connectable="0" vertex="1" parent="xKhvlTLMgPMaPwzDGQI1-19">
          <mxGeometry relative="1" as="geometry" />
        </mxCell>
        <mxCell id="xKhvlTLMgPMaPwzDGQI1-21" value="" style="endArrow=classic;html=1;rounded=0;fontSize=16;exitX=0;exitY=0.5;exitDx=0;exitDy=0;" edge="1" parent="1" source="xKhvlTLMgPMaPwzDGQI1-8" target="xKhvlTLMgPMaPwzDGQI1-13">
          <mxGeometry relative="1" as="geometry">
            <mxPoint x="420" y="290" as="sourcePoint" />
            <mxPoint x="520" y="290" as="targetPoint" />
          </mxGeometry>
        </mxCell>
        <mxCell id="xKhvlTLMgPMaPwzDGQI1-22" value="Fetch data" style="edgeLabel;resizable=0;html=1;align=center;verticalAlign=middle;fontSize=16;" connectable="0" vertex="1" parent="xKhvlTLMgPMaPwzDGQI1-21">
          <mxGeometry relative="1" as="geometry" />
        </mxCell>
        <mxCell id="xKhvlTLMgPMaPwzDGQI1-23" value="" style="endArrow=classic;html=1;rounded=0;fontSize=16;exitX=0.5;exitY=1;exitDx=0;exitDy=0;" edge="1" parent="1" source="xKhvlTLMgPMaPwzDGQI1-13" target="xKhvlTLMgPMaPwzDGQI1-17">
          <mxGeometry relative="1" as="geometry">
            <mxPoint x="420" y="290" as="sourcePoint" />
            <mxPoint x="520" y="290" as="targetPoint" />
          </mxGeometry>
        </mxCell>
        <mxCell id="xKhvlTLMgPMaPwzDGQI1-24" value="Save data" style="edgeLabel;resizable=0;html=1;align=center;verticalAlign=middle;fontSize=16;" connectable="0" vertex="1" parent="xKhvlTLMgPMaPwzDGQI1-23">
          <mxGeometry relative="1" as="geometry" />
        </mxCell>
      </root>
    </mxGraphModel>
  </diagram>
</mxfile>
